<svg xmlns="http://www.w3.org/2000/svg" viewBox="0 0 100 100" fill="none">
  <circle cx="50" cy="50" r="45" stroke="#171309" stroke-width="2.4"/>
  <g stroke="#171309" stroke-width="1.8" fill="#171309" stroke-linecap="round">
    <!-- branca superior -->
    <path d="M27 33 Q50 20 73 35" fill="none"/>
    <ellipse cx="33" cy="29" rx="4.8" ry="2.2" transform="rotate(-30 33 29)"/>
    <ellipse cx="44" cy="24" rx="4.8" ry="2.2" transform="rotate(-12 44 24)"/>
    <ellipse cx="56" cy="24" rx="4.8" ry="2.2" transform="rotate(12 56 24)"/>
    <ellipse cx="67" cy="29" rx="4.8" ry="2.2" transform="rotate(30 67 29)"/>
    <circle cx="39" cy="32.5" r="2.4"/>
    <circle cx="61" cy="32.5" r="2.4"/>
    <!-- branca inferior -->
    <path d="M27 67 Q50 80 73 65" fill="none"/>
    <ellipse cx="33" cy="71" rx="4.8" ry="2.2" transform="rotate(30 33 71)"/>
    <ellipse cx="44" cy="76" rx="4.8" ry="2.2" transform="rotate(12 44 76)"/>
    <ellipse cx="56" cy="76" rx="4.8" ry="2.2" transform="rotate(-12 56 76)"/>
    <ellipse cx="67" cy="71" rx="4.8" ry="2.2" transform="rotate(-30 67 71)"/>
    <circle cx="39" cy="67.5" r="2.4"/>
    <circle cx="61" cy="67.5" r="2.4"/>
  </g>
  <text x="50" y="57" text-anchor="middle" font-family="Cormorant, Georgia, serif" font-size="30" font-weight="600" fill="#171309" letter-spacing="-1">T</text>
</svg>
